<?xml version="1.0" encoding="utf-8"?>
<!-- Generator: Adobe Illustrator 16.0.4, SVG Export Plug-In . SVG Version: 6.00 Build 0)  -->
<!DOCTYPE svg PUBLIC "-//W3C//DTD SVG 1.1//EN" "http://www.w3.org/Graphics/SVG/1.1/DTD/svg11.dtd">
<svg version="1.1" id="Layer_1" xmlns="http://www.w3.org/2000/svg" xmlns:xlink="http://www.w3.org/1999/xlink" x="0px" y="0px"
	 width="50px" height="50px" viewBox="0 0 50 50" enable-background="new 0 0 50 50" xml:space="preserve">
<path d="M37.188,25c0,1.174-0.951,2.125-2.125,2.125c-1,0-1.834-0.693-2.06-1.625h-2.679c-0.104,1.105-0.533,2.104-1.204,2.913
	l1.892,1.892c0.818-0.498,1.898-0.4,2.606,0.309c0.83,0.828,0.83,2.175,0,3.005s-2.177,0.83-3.007,0
	c-0.707-0.708-0.807-1.787-0.307-2.604l-1.893-1.893c-0.809,0.671-1.809,1.102-2.913,1.204v2.679
	c0.933,0.227,1.625,1.059,1.625,2.061c0,1.174-0.951,2.125-2.125,2.125s-2.125-0.951-2.125-2.125c0-1.002,0.692-1.834,1.625-2.061
	v-2.679c-1.104-0.104-2.104-0.533-2.913-1.204l-1.893,1.893c0.498,0.817,0.4,1.896-0.309,2.604c-0.828,0.83-2.175,0.83-3.005,0
	s-0.83-2.177,0-3.005c0.708-0.709,1.788-0.807,2.606-0.309l1.892-1.892c-0.671-0.81-1.101-1.808-1.204-2.913h-2.679
	c-0.226,0.932-1.06,1.625-2.06,1.625c-1.174,0-2.125-0.951-2.125-2.125s0.951-2.125,2.125-2.125c1,0,1.834,0.693,2.06,1.625h2.679
	c0.104-1.105,0.533-2.105,1.204-2.913l-1.894-1.894c-0.816,0.5-1.896,0.4-2.604-0.308c-0.83-0.829-0.83-2.176,0-3.006
	c0.83-0.829,2.177-0.829,3.007,0c0.706,0.708,0.805,1.788,0.307,2.606l1.893,1.893c0.809-0.671,1.809-1.102,2.913-1.204v-2.679
	c-0.933-0.227-1.625-1.059-1.625-2.061c0-1.174,0.951-2.125,2.125-2.125s2.125,0.951,2.125,2.125c0,1.002-0.692,1.834-1.625,2.061
	v2.679c1.104,0.104,2.104,0.533,2.913,1.204l1.893-1.893c-0.5-0.818-0.4-1.898,0.307-2.606c0.83-0.829,2.177-0.829,3.007,0
	c0.83,0.83,0.829,2.177,0,3.006c-0.707,0.708-1.787,0.808-2.604,0.308l-1.894,1.894c0.671,0.808,1.101,1.808,1.204,2.913h2.679
	c0.226-0.932,1.06-1.625,2.06-1.625C36.237,22.875,37.188,23.826,37.188,25z"/>
</svg>
